# xmcd CD database file
#
# Track frame offsets:
#	182
#	17587
#	33392
#	49852
#	67560
#	85847
#	104280
#	122007
#	139795
#	152832
#	165970
#	181252
#	198960
#
# Disc length: 2878 seconds
#
# Revision: 7
# Processed by: cddbd v1.5.2PL0 Copyright (c) Steve Scherf et al.
# Submitted via: CDex 1.51
#
DISCID=980b3c0d
DTITLE=Chad Brock - Chad Brock - III
DYEAR=2001
DGENRE=Country
TTITLE0=The Thought Of Bein' In Love
TTITLE1=Park The Pickup (Kiss The Girl)
TTITLE2=Tell Me How
TTITLE3=I'd Like To See You Try
TTITLE4=I Ain't Cryin'
TTITLE5=The Lie
TTITLE6=Population Minus One
TTITLE7=Right Now
TTITLE8=I'd Love To Love You
TTITLE9=Livin' In las Vegas
TTITLE10=Yes!
TTITLE11=Ordinary Life
TTITLE12=Lightning Does The Work
EXTD=YEAR: 2001
EXTT0=
EXTT1=
EXTT2=
EXTT3=
EXTT4=
EXTT5=
EXTT6=
EXTT7=
EXTT8=
EXTT9=
EXTT10=
EXTT11=
EXTT12=
PLAYORDER=
